<svg width="235" height="60" viewBox="0 0 235 60" fill="none" xmlns="http://www.w3.org/2000/svg">
<path d="M79.6152 38.3699C75.4964 38.3699 72.3642 37.3341 70.2185 35.2624C68.0728 33.166 67 30.2188 67 26.4207C67 22.4499 68.0975 19.3547 70.2925 17.135C72.4875 14.9154 75.7184 13.8055 79.9851 13.8055C81.4402 13.8055 82.7474 13.8919 83.9065 14.0645C85.0904 14.2371 86.2125 14.4961 87.273 14.8414V19.9466C86.2125 19.552 85.1027 19.2807 83.9435 19.1328C82.809 18.9848 81.6375 18.9108 80.429 18.9108C77.8641 18.9108 75.9897 19.5274 74.8059 20.7605C73.6467 21.969 73.0671 23.8557 73.0671 26.4207C73.0671 28.7637 73.622 30.5024 74.7319 31.6369C75.8417 32.7468 77.4818 33.3017 79.6522 33.3017C81.0826 33.3017 82.4144 33.1044 83.6476 32.7098V28.1964H78.5053V24.46H88.6418V36.2613C87.8033 36.8038 86.6318 37.2971 85.1274 37.741C83.6476 38.1603 81.8102 38.3699 79.6152 38.3699Z" fill="black"/>
<path d="M100.83 38.3699C97.4513 38.3699 94.9603 37.5931 93.3572 36.0393C91.7541 34.4609 90.9526 32.1918 90.9526 29.2323C90.9526 26.2974 91.7541 24.0407 93.3572 22.4623C94.985 20.8838 97.4759 20.0946 100.83 20.0946C104.209 20.0946 106.7 20.8838 108.303 22.4623C109.931 24.0407 110.745 26.2974 110.745 29.2323C110.745 32.1918 109.943 34.4609 108.34 36.0393C106.737 37.5931 104.234 38.3699 100.83 38.3699ZM100.83 33.7086C102.211 33.7086 103.198 33.3633 103.79 32.6728C104.382 31.9822 104.678 30.8354 104.678 29.2323C104.678 27.6292 104.382 26.4824 103.79 25.7918C103.198 25.1012 102.211 24.7559 100.83 24.7559C99.4736 24.7559 98.4995 25.1012 97.9075 25.7918C97.3156 26.4824 97.0197 27.6292 97.0197 29.2323C97.0197 30.8354 97.3156 31.9822 97.9075 32.6728C98.4995 33.3633 99.4736 33.7086 100.83 33.7086Z" fill="black"/>
<path d="M113.026 30.0462V25.4218H127.639V30.0462H113.026Z" fill="black"/>
<path d="M142.549 38.3699C138.431 38.3699 135.298 37.3341 133.153 35.2624C131.007 33.166 129.934 30.2188 129.934 26.4207C129.934 22.4499 131.032 19.3547 133.227 17.135C135.422 14.9154 138.653 13.8055 142.919 13.8055C144.374 13.8055 145.682 13.8919 146.841 14.0645C148.025 14.2371 149.147 14.4961 150.207 14.8414V19.9466C149.147 19.552 148.037 19.2807 146.878 19.1328C145.743 18.9848 144.572 18.9108 143.363 18.9108C140.798 18.9108 138.924 19.5274 137.74 20.7605C136.581 21.969 136.001 23.8557 136.001 26.4207C136.001 28.7637 136.556 30.5024 137.666 31.6369C138.776 32.7468 140.416 33.3017 142.586 33.3017C144.017 33.3017 145.349 33.1044 146.582 32.7098V28.1964H141.439V24.46H151.576V36.2613C150.737 36.8038 149.566 37.2971 148.062 37.741C146.582 38.1603 144.744 38.3699 142.549 38.3699Z" fill="black"/>
<path d="M164.023 38.3699C160.965 38.3699 158.511 37.6177 156.661 36.1133C154.812 34.5842 153.887 32.2905 153.887 29.2323C153.887 26.4454 154.651 24.2257 156.18 22.5733C157.709 20.9208 160.003 20.0946 163.061 20.0946C165.848 20.0946 168.006 20.8098 169.535 22.2403C171.065 23.6708 171.829 25.5945 171.829 28.0115V31.156H159.399C159.67 32.3152 160.299 33.129 161.286 33.5976C162.297 34.0416 163.666 34.2635 165.392 34.2635C166.354 34.2635 167.328 34.1772 168.315 34.0046C169.326 33.8319 170.164 33.61 170.83 33.3387V37.2231C169.992 37.6177 168.993 37.9013 167.834 38.074C166.675 38.2713 165.404 38.3699 164.023 38.3699ZM159.399 27.7155H166.65V26.9386C166.65 26.0754 166.391 25.3972 165.873 24.9039C165.355 24.386 164.48 24.127 163.246 24.127C161.816 24.127 160.817 24.423 160.25 25.0149C159.683 25.5821 159.399 26.4824 159.399 27.7155Z" fill="black"/>
<path d="M182.072 38.3699C179.902 38.3699 178.299 37.815 177.263 36.7052C176.251 35.5954 175.746 34.0662 175.746 32.1179V24.9779H173.378V20.4646H175.746V16.8021L181.702 15.2113V20.4646H185.956L185.697 24.9779H181.702V31.7109C181.702 32.5495 181.912 33.1414 182.331 33.4867C182.75 33.8073 183.379 33.9676 184.218 33.9676C184.933 33.9676 185.66 33.8443 186.4 33.5976V37.6301C185.241 38.1233 183.798 38.3699 182.072 38.3699Z" fill="black"/>
<path d="M195.909 38.3699C193.738 38.3699 192.135 37.815 191.1 36.7052C190.088 35.5954 189.583 34.0662 189.583 32.1179V24.9779H187.215V20.4646H189.583V16.8021L195.539 15.2113V20.4646H199.793L199.534 24.9779H195.539V31.7109C195.539 32.5495 195.749 33.1414 196.168 33.4867C196.587 33.8073 197.216 33.9676 198.055 33.9676C198.77 33.9676 199.497 33.8443 200.237 33.5976V37.6301C199.078 38.1233 197.635 38.3699 195.909 38.3699Z" fill="black"/>
<path d="M211.928 38.3699C208.87 38.3699 206.416 37.6177 204.566 36.1133C202.717 34.5842 201.792 32.2905 201.792 29.2323C201.792 26.4454 202.556 24.2257 204.085 22.5733C205.615 20.9208 207.908 20.0946 210.966 20.0946C213.753 20.0946 215.911 20.8098 217.441 22.2403C218.97 23.6708 219.734 25.5945 219.734 28.0115V31.156H207.304C207.575 32.3152 208.204 33.129 209.191 33.5976C210.202 34.0416 211.571 34.2635 213.297 34.2635C214.259 34.2635 215.233 34.1772 216.22 34.0046C217.231 33.8319 218.069 33.61 218.735 33.3387V37.2231C217.897 37.6177 216.898 37.9013 215.739 38.074C214.58 38.2713 213.309 38.3699 211.928 38.3699ZM207.304 27.7155H214.555V26.9386C214.555 26.0754 214.296 25.3972 213.778 24.9039C213.26 24.386 212.385 24.127 211.151 24.127C209.721 24.127 208.722 24.423 208.155 25.0149C207.588 25.5821 207.304 26.4824 207.304 27.7155Z" fill="black"/>
<path d="M222.763 38V20.4646H228.423L228.608 22.0923C229.373 21.6237 230.322 21.2045 231.457 20.8345C232.591 20.4399 233.726 20.1933 234.86 20.0946V24.571C234.219 24.645 233.504 24.7683 232.715 24.9409C231.95 25.0889 231.21 25.2739 230.495 25.4958C229.804 25.7178 229.213 25.9521 228.719 26.1987V38H222.763Z" fill="black"/>
<g filter="url(#filter0_d_302_22)">
<path d="M4.00024 13.2366C4.00024 5.92635 9.92633 0.000282288 17.2365 0.000282288H42.7637C50.0739 0.000282288 55.9999 5.92637 55.9999 13.2366V38.7637C55.9999 46.0739 50.0739 52 42.7637 52H30.0001H17.2365C9.92632 52 4.00024 46.0739 4.00024 38.7637V13.2366Z" fill="white"/>
<path fill-rule="evenodd" clip-rule="evenodd" d="M4 13.2363C4 5.92607 9.92609 -1.68587e-07 17.2363 8.42937e-07L42.7634 0C50.0736 3.37175e-07 55.9997 5.92609 55.9997 13.2363L55.9997 38.7634C55.9997 46.0736 50.0736 51.9997 42.7634 51.9997H36.5438C32.7904 51.9997 29.4274 49.3388 29.4693 45.5857C29.5405 39.2183 31.7022 34.2071 33.6486 29.6951C33.7395 29.4843 33.83 29.2747 33.9197 29.066C34.1635 28.4993 33.5386 27.98 33.026 28.3233C32.8373 28.4497 32.6477 28.5769 32.4572 28.7049C26.9607 32.3948 20.645 36.6347 10.4184 36.2645C6.66079 36.1284 4 32.7816 4 29.0215L4 13.2363ZM36.7889 27.1522C38.2683 27.1522 39.4676 25.9529 39.4676 24.4735C39.4676 22.994 38.2683 21.7947 36.7889 21.7947C35.3094 21.7947 34.1101 22.994 34.1101 24.4735C34.1101 25.9529 35.3094 27.1522 36.7889 27.1522Z" fill="black"/>
</g>
<defs>
<filter id="filter0_d_302_22" x="0" y="0" width="60" height="60" filterUnits="userSpaceOnUse" color-interpolation-filters="sRGB">
<feFlood flood-opacity="0" result="BackgroundImageFix"/>
<feColorMatrix in="SourceAlpha" type="matrix" values="0 0 0 0 0 0 0 0 0 0 0 0 0 0 0 0 0 0 127 0" result="hardAlpha"/>
<feOffset dy="4"/>
<feGaussianBlur stdDeviation="2"/>
<feComposite in2="hardAlpha" operator="out"/>
<feColorMatrix type="matrix" values="0 0 0 0 0 0 0 0 0 0 0 0 0 0 0 0 0 0 0.25 0"/>
<feBlend mode="normal" in2="BackgroundImageFix" result="effect1_dropShadow_302_22"/>
<feBlend mode="normal" in="SourceGraphic" in2="effect1_dropShadow_302_22" result="shape"/>
</filter>
</defs>
</svg>
