<svg width="605" height="605" viewBox="0 0 605 605" fill="none" xmlns="http://www.w3.org/2000/svg">
<path d="M0 154C0 68.9479 68.9481 -0.000244141 154 -0.000244141H451C536.052 -0.000244141 605 68.9479 605 154V451C605 536.052 536.052 605 451 605H302.5H154C68.9481 605 0 536.052 0 451V154Z" fill="white"/>
<path fill-rule="evenodd" clip-rule="evenodd" d="M1.53065e-05 154C2.13757e-05 68.9481 68.9482 1.41613e-05 154 8.09219e-06L451 0C536.052 -3.37175e-06 605 68.9482 605 154L605 451C605 536.052 536.052 605 451 605H378.637C334.967 605 295.84 574.042 296.328 530.375C297.155 456.292 322.306 397.989 344.953 345.492C346.01 343.041 347.062 340.601 348.107 338.174C350.942 331.58 343.673 325.538 337.709 329.532C335.513 331.003 333.308 332.484 331.091 333.972C267.14 376.904 193.66 426.233 74.6758 421.926C30.9574 420.343 -3.64604e-06 381.403 0 337.656L1.53065e-05 154ZM381.488 315.907C398.701 315.907 412.655 301.954 412.655 284.741C412.655 267.528 398.701 253.574 381.488 253.574C364.275 253.574 350.321 267.528 350.321 284.741C350.321 301.954 364.275 315.907 381.488 315.907Z" fill="black"/>
</svg>
